# xmcd CD database file
#
# Track frame offsets:
#	150
#	17489
#	37741
#	54584
#	63747
#	83212
#	100263
#	119404
#	139429
#	153461
#	170104
#	182082
#
# Disc length: 2731 seconds
#
# Revision: 1
# Processed by: cddbd v1.5.2PL0 Copyright (c) Steve Scherf et al.
# Submitted via: CDex 1.51
#
DISCID=a40aa90c
DTITLE=Various Artist - STTW-3110
DYEAR=1900
DGENRE=Blues
TTITLE0=Doctor And The Medics - Spirit In The Sky
TTITLE1=S Club 7 - Reach
TTITLE2=Frank Sinatra - New York New York
TTITLE3=Shirley Bassey - Big Spender
TTITLE4=Tom Jones - SexBomb
TTITLE5=Kelly Marie - Feels Like I'm In Love
TTITLE6=Commitments The - Mustang Sally
TTITLE7=Tina Turner - The Best
TTITLE8=Dion - The Wanderer
TTITLE9=Showaddywaddy - Hey Rock 'N' Roll
TTITLE10=Del Shannon - Runaway
TTITLE11=Grease - Grease Megamix
EXTD=
EXTT0=
EXTT1=
EXTT2=
EXTT3=
EXTT4=
EXTT5=
EXTT6=
EXTT7=
EXTT8=
EXTT9=
EXTT10=
EXTT11=
PLAYORDER=
